<svg xmlns="http://www.w3.org/2000/svg" width="520" height="416" viewBox="0 0 520 416"><g fill="#F5ADB5" fill-rule="evenodd"><path opacity=".5" d="M97.15 407.605l6.36-4.694-7.905-.061-4.696-6.36-.06 7.905-6.36 4.694 7.906.061 4.696 6.36z"/><path opacity=".657" d="M509.894 203.529l9.442-9.256-13.108 1.741-9.257-9.44 1.74 13.105-9.442 9.256 13.109-1.74 9.257 9.44z"/><path opacity=".421" d="M275.653 37.118l7.66-9.955-12.101 3.37-9.958-7.657 3.37 12.099-7.658 9.955 12.102-3.37 9.957 7.657z"/><path opacity=".3" d="M406.753 114.924l5.872-10.35-10.908 4.757-10.351-5.871 4.758 10.906-5.872 10.35 10.907-4.757 10.351 5.871z"/><path opacity=".546" d="M484.222 10.526L488.353.074l-9.576 5.883-10.454-4.131 5.884 9.575-4.131 10.45 9.577-5.882 10.452 4.131z"/><path opacity=".2" d="M436.524 278.754l2.48-10.282-8.155 6.738-10.282-2.481 6.738 8.153-2.482 10.282 8.155-6.737 10.283 2.48z"/><path opacity=".538" d="M15.866 89.787l.963-9.87-6.692 7.319-9.87-.962 7.319 6.69-.962 9.87 6.692-7.319 9.87.962z"/><path opacity=".2" d="M79.215 226.626l-.392-9.246-5.235 7.633-9.248.393 7.635 5.233.393 9.246 5.234-7.633 9.247-.393zm176.432 94.743l-1.557-8.451-3.826 7.694-8.453 1.557 7.696 3.825 1.557 8.451 3.826-7.694 8.453-1.557z"/><path opacity=".147" d="M333.072 143.156l-2.5-7.5-2.5 7.5-7.5 2.5 7.5 2.5 2.5 7.5 2.5-7.5 7.5-2.5z"/></g></svg>