<svg xmlns="http://www.w3.org/2000/svg" width="1440" height="120" viewBox="0 0 1440 120"><g fill="#FFF" fill-rule="evenodd"><path d="M0 120l1.726-65.37C123.909 40.603 244 37.096 362 44.11c177 10.52 342 35.986 471 35.986 23.476 0 47.46-2.19 71.87-5.77C1014.59 58.228 1132.882 14 1252 14c73.7 0 136.367 8.535 188 25.605V120H0z"/><path d="M1440 120V24.582C1254.432-1.481 1107.766-6.82 1000 8.568c-161.648 23.081-213.273 48-342.273 48-129 0-307.97-48-453.587-48-97.078 0-165.125 2.123-204.14 6.37V120h1440z" opacity=".5"/></g></svg>